<svg width="36" height="36" viewBox="0 0 36 36" fill="none" xmlns="http://www.w3.org/2000/svg">
<path fill-rule="evenodd" clip-rule="evenodd" d="M33.0001 18C33.0001 26.28 26.2651 33 18.0001 33L17.5805 32.9942C9.49428 32.7718 3.00015 26.1397 3.00015 18C3.00015 9.735 9.72015 3 18.0001 3C26.2651 3 33.0001 9.735 33.0001 18ZM15.0302 12C14.5951 12.45 14.5951 13.155 15.0451 13.59L19.4702 18L15.0451 22.41C14.5951 22.845 14.5951 23.565 15.0302 24C15.4802 24.45 16.1852 24.45 16.6202 24L21.8551 18.795C22.0652 18.585 22.1851 18.3 22.1851 18C22.1851 17.7 22.0652 17.415 21.8551 17.205L16.6202 12C16.4102 11.775 16.1252 11.67 15.8401 11.67C15.5402 11.67 15.2551 11.775 15.0302 12Z" fill="white"/>
</svg>
