<svg width="72" height="72" viewBox="0 0 72 72" fill="none" xmlns="http://www.w3.org/2000/svg">
<rect width="72" height="72" rx="8" fill="#F7931A"/>
<path d="M45.8 56H26.2C22.8 56 20 53.22 20 49.8V22.2C20 18.8 22.78 16 26.2 16H45.8C49.2 16 52 18.78 52 22.2V49.8C52 53.22 49.22 56 45.8 56Z" stroke="white" stroke-width="3" stroke-linecap="round" stroke-linejoin="round"/>
<path d="M49 38H23C21.34 38 20 36.66 20 35V31C20 29.34 21.34 28 23 28H49C50.66 28 52 29.34 52 31V35C52 36.66 50.66 38 49 38Z" stroke="white" stroke-width="3" stroke-linecap="round" stroke-linejoin="round"/>
<path d="M28.989 47.3999H29.007" stroke="white" stroke-width="3" stroke-linecap="round" stroke-linejoin="round"/>
<path d="M42.989 47.3999H43.007" stroke="white" stroke-width="3" stroke-linecap="round" stroke-linejoin="round"/>
<path d="M31 22H41" stroke="white" stroke-width="3" stroke-linecap="round" stroke-linejoin="round"/>
</svg>
