<svg width="240" height="114" viewBox="0 0 240 114" fill="none" xmlns="http://www.w3.org/2000/svg">
<path d="M58.2091 0C88.7689 0 109.142 7.8375 109.142 17.8125V28.5C113.167 28.5 116.418 31.684 116.418 35.625V49.875C116.418 53.816 113.167 57 109.142 57V92.625C109.142 96.566 105.891 99.75 101.866 99.75V106.875C101.866 110.816 98.6145 114 94.5899 114H87.3137C83.2891 114 80.0376 110.816 80.0376 106.875V99.75H36.3807V106.875C36.3807 110.816 33.1292 114 29.1046 114H21.8284C17.8038 114 14.5523 110.816 14.5523 106.875V99.75C10.5277 99.75 7.27614 96.566 7.27614 92.625V57C3.25153 57 0 53.816 0 49.875V35.625C0 31.684 3.25153 28.5 7.27614 28.5V17.8125C7.27614 7.8375 27.6493 0 58.2091 0ZM21.8284 35.625V57C21.8284 60.941 25.08 64.125 29.1046 64.125H54.5711V28.5H29.1046C25.08 28.5 21.8284 31.684 21.8284 35.625ZM61.8472 64.125H87.3137C91.3383 64.125 94.5899 60.941 94.5899 57V35.625C94.5899 31.684 91.3383 28.5 87.3137 28.5H61.8472V64.125ZM25.4665 89.0625C29.4911 89.0625 32.7426 85.8785 32.7426 81.9375C32.7426 77.9965 29.4911 74.8125 25.4665 74.8125C21.4419 74.8125 18.1904 77.9965 18.1904 81.9375C18.1904 85.8785 21.4419 89.0625 25.4665 89.0625ZM90.9518 89.0625C94.9764 89.0625 98.2279 85.8785 98.2279 81.9375C98.2279 77.9965 94.9764 74.8125 90.9518 74.8125C86.9272 74.8125 83.6756 77.9965 83.6756 81.9375C83.6756 85.8785 86.9272 89.0625 90.9518 89.0625ZM80.0376 17.8125C80.0376 15.8531 78.4004 14.25 76.3995 14.25H40.0188C38.0178 14.25 36.3807 15.8531 36.3807 17.8125C36.3807 19.7719 38.0178 21.375 40.0188 21.375H76.3995C78.4004 21.375 80.0376 19.7719 80.0376 17.8125Z" fill="#F7931A"/>
<path d="M162.226 22.3415C162.014 21.5652 161.702 20.8814 161.291 20.29C160.879 19.6863 160.374 19.175 159.775 18.7561C159.176 18.3372 158.49 18.023 157.717 17.8135C156.943 17.5918 156.095 17.4809 155.172 17.4809C153.313 17.4809 151.704 17.9244 150.344 18.8115C148.996 19.6986 147.955 20.9923 147.219 22.6926C146.483 24.3806 146.115 26.432 146.115 28.8469C146.115 31.2741 146.47 33.344 147.181 35.0566C147.892 36.7692 148.922 38.0753 150.269 38.9747C151.616 39.8741 153.25 40.3238 155.172 40.3238C156.868 40.3238 158.303 40.0528 159.475 39.5106C160.661 38.9562 161.559 38.1738 162.17 37.1635C162.781 36.1532 163.087 34.9642 163.087 33.5966L164.809 33.7999H155.49V27.1281H172.013V32.1366C172.013 35.5248 171.283 38.4264 169.824 40.8413C168.376 43.2562 166.38 45.1105 163.835 46.4042C161.303 47.6979 158.39 48.3447 155.097 48.3447C151.442 48.3447 148.229 47.5623 145.46 45.9976C142.69 44.4328 140.532 42.2028 138.985 39.3073C137.438 36.3996 136.665 32.9498 136.665 28.9578C136.665 25.8529 137.133 23.0992 138.068 20.6966C139.004 18.2817 140.308 16.2365 141.979 14.5608C143.663 12.8852 145.61 11.6161 147.818 10.7537C150.038 9.89119 152.427 9.45996 154.984 9.45996C157.205 9.45996 159.27 9.77414 161.178 10.4025C163.099 11.0309 164.796 11.918 166.268 13.0638C167.753 14.2097 168.956 15.5711 169.88 17.1482C170.803 18.7253 171.377 20.4564 171.601 22.3415H162.226Z" fill="#18181B"/>
<path d="M177.472 47.8272V9.97744H193.303C196.172 9.97744 198.649 10.5319 200.732 11.6408C202.828 12.7373 204.443 14.2713 205.578 16.2426C206.714 18.2016 207.281 20.481 207.281 23.0807C207.281 25.6927 206.701 27.9783 205.541 29.9373C204.393 31.884 202.753 33.3933 200.62 34.4652C198.486 35.5371 195.954 36.0731 193.022 36.0731H186.735V28.8654H191.301C192.698 28.8654 193.864 28.6251 194.8 28.1446C195.748 27.6641 196.465 26.9926 196.952 26.1301C197.438 25.2554 197.682 24.2389 197.682 23.0807C197.682 21.9102 197.438 20.8999 196.952 20.0498C196.465 19.1873 195.748 18.522 194.8 18.0538C193.852 17.5856 192.685 17.3515 191.301 17.3515H186.735V47.8272H177.472Z" fill="#18181B"/>
<path d="M136.665 104.06V66.21H152.645C155.515 66.21 157.916 66.6105 159.85 67.4113C161.796 68.2122 163.255 69.3334 164.228 70.7749C165.214 72.2165 165.707 73.886 165.707 75.7834C165.707 77.2249 165.401 78.5125 164.79 79.646C164.179 80.7672 163.336 81.6974 162.264 82.4367C161.191 83.1759 159.95 83.6934 158.54 83.9891V84.3587C160.087 84.4326 161.515 84.8454 162.825 85.597C164.147 86.3485 165.208 87.3958 166.006 88.7388C166.805 90.0695 167.204 91.6465 167.204 93.47C167.204 95.503 166.68 97.3203 165.632 98.922C164.584 100.511 163.068 101.768 161.085 102.692C159.101 103.604 156.694 104.06 153.862 104.06H136.665ZM145.928 96.6858H151.654C153.662 96.6858 155.14 96.31 156.089 95.5584C157.049 94.8068 157.529 93.7596 157.529 92.4166C157.529 91.4432 157.299 90.6054 156.837 89.9031C156.375 89.1885 155.721 88.6402 154.872 88.2583C154.024 87.864 153.007 87.6669 151.822 87.6669H145.928V96.6858ZM145.928 81.7713H151.055C152.065 81.7713 152.964 81.605 153.749 81.2723C154.535 80.9397 155.147 80.4591 155.583 79.8308C156.032 79.2024 156.257 78.4447 156.257 77.5576C156.257 76.2885 155.802 75.2905 154.891 74.5636C153.98 73.8367 152.751 73.4732 151.205 73.4732H145.928V81.7713Z" fill="#F7931A"/>
<path d="M194.842 66.21H204.086V90.6239C204.086 93.4454 203.406 95.9034 202.046 97.9979C200.687 100.08 198.79 101.694 196.358 102.84C193.925 103.974 191.1 104.54 187.881 104.54C184.625 104.54 181.781 103.974 179.348 102.84C176.916 101.694 175.026 100.08 173.678 97.9979C172.331 95.9034 171.657 93.4454 171.657 90.6239V66.21H180.92V89.8292C180.92 91.1352 181.207 92.2995 181.781 93.3222C182.367 94.3448 183.184 95.1457 184.232 95.7247C185.28 96.3038 186.496 96.5934 187.881 96.5934C189.266 96.5934 190.476 96.3038 191.511 95.7247C192.559 95.1457 193.376 94.3448 193.963 93.3222C194.549 92.2995 194.842 91.1352 194.842 89.8292V66.21Z" fill="#F7931A"/>
<path d="M230.606 77.5576C230.482 76.2023 229.926 75.1488 228.941 74.3973C227.968 73.6334 226.577 73.2514 224.768 73.2514C223.57 73.2514 222.572 73.4054 221.774 73.7135C220.976 74.0215 220.377 74.4466 219.978 74.9887C219.578 75.5185 219.373 76.1284 219.36 76.8183C219.335 77.3851 219.447 77.8841 219.697 78.3153C219.959 78.7465 220.333 79.1285 220.82 79.4612C221.319 79.7815 221.918 80.0649 222.616 80.3113C223.315 80.5577 224.101 80.7733 224.974 80.9581L228.267 81.6974C230.163 82.104 231.835 82.6461 233.282 83.3238C234.742 84.0014 235.964 84.8084 236.95 85.7448C237.948 86.6812 238.703 87.7593 239.214 88.979C239.726 90.1988 239.988 91.5664 240 93.0819C239.988 95.4722 239.376 97.5236 238.166 99.2362C236.956 100.949 235.216 102.261 232.945 103.173C230.687 104.084 227.962 104.54 224.768 104.54C221.562 104.54 218.768 104.066 216.385 103.117C214.002 102.169 212.15 100.727 210.827 98.7926C209.505 96.8583 208.825 94.4126 208.788 91.4556H217.657C217.732 92.6753 218.063 93.6918 218.649 94.505C219.235 95.3182 220.04 95.9342 221.063 96.3531C222.098 96.772 223.296 96.9815 224.656 96.9815C225.903 96.9815 226.964 96.8151 227.837 96.4825C228.723 96.1498 229.403 95.6878 229.877 95.0964C230.351 94.505 230.594 93.8273 230.606 93.0634C230.594 92.3488 230.369 91.7389 229.933 91.2338C229.496 90.7163 228.822 90.2727 227.912 89.9031C227.014 89.5212 225.866 89.17 224.469 88.8497L220.464 87.9256C217.146 87.174 214.532 85.9604 212.624 84.2848C210.715 82.5968 209.767 80.3175 209.779 77.4467C209.767 75.1057 210.403 73.0543 211.688 71.2924C212.973 69.5305 214.751 68.1567 217.021 67.1711C219.292 66.1854 221.88 65.6926 224.787 65.6926C227.756 65.6926 230.332 66.1915 232.515 67.1895C234.711 68.1752 236.413 69.5613 237.624 71.3478C238.834 73.1344 239.451 75.2043 239.476 77.5576H230.606Z" fill="#F7931A"/>
</svg>
